# xmcd
#
# Track frame offsets: 
#        150
#        29749
#        53317
#        75918
#        99542
#        125556
#        148017
#        176512
#        200582
#        218710
#        240247
#
# Disc length: 3571 seconds
#
# Revision: 1
# Processed by: cddbd v1.5.2PL0 Copyright (c) Steve Scherf et al.
# Submitted via: ExactAudioCopyFreeDBPlugin 1.0
#
DISCID=8d0df10b
DTITLE=Klaus "Major" Heuser Band - 57
DYEAR=2014
DGENRE=Blues
TTITLE0=Catch The Flame
TTITLE1=You've Got What It Takes
TTITLE2=Talk Of The Town
TTITLE3=Fullmoon Nights
TTITLE4=S.A.M.
TTITLE5=Make It Better
TTITLE6=Take Me Away
TTITLE7=Pictures And Memories
TTITLE8=The Chance
TTITLE9=Don't Cross My Way
TTITLE10=Up In The Clouds
EXTD=
EXTT0=
EXTT1=
EXTT2=
EXTT3=
EXTT4=
EXTT5=
EXTT6=
EXTT7=
EXTT8=
EXTT9=
EXTT10=
PLAYORDER=
